<?xml version="1.0" encoding="UTF-8" standalone="no"?>
<svg
   xmlns:dc="http://purl.org/dc/elements/1.1/"
   xmlns:cc="http://creativecommons.org/ns#"
   xmlns:rdf="http://www.w3.org/1999/02/22-rdf-syntax-ns#"
   xmlns:svg="http://www.w3.org/2000/svg"
   xmlns="http://www.w3.org/2000/svg"
   xmlns:sodipodi="http://sodipodi.sourceforge.net/DTD/sodipodi-0.dtd"
   xmlns:inkscape="http://www.inkscape.org/namespaces/inkscape"
   version="1.0"
   width="103pt"
   height="103pt"
   viewBox="0 0 103 103"
   preserveAspectRatio="xMidYMid meet"
   id="svg3422"
   inkscape:version="0.91 r13725"
   sodipodi:docname="moon3.svg">
  <defs
     id="defs3432" />
  <sodipodi:namedview
     pagecolor="#ffffff"
     bordercolor="#666666"
     borderopacity="1"
     objecttolerance="10"
     gridtolerance="10"
     guidetolerance="10"
     inkscape:pageopacity="0"
     inkscape:pageshadow="2"
     inkscape:window-width="793"
     inkscape:window-height="559"
     id="namedview3430"
     showgrid="false"
     inkscape:zoom="1.2875855"
     inkscape:cx="79.375"
     inkscape:cy="85.625"
     inkscape:window-x="0"
     inkscape:window-y="0"
     inkscape:window-maximized="0"
     inkscape:current-layer="g3426" />
  <metadata
     id="metadata3424">
Created by potrace 1.7, written by Peter Selinger 2001-2005
<rdf:RDF>
  <cc:Work
     rdf:about="">
    <dc:format>image/svg+xml</dc:format>
    <dc:type
       rdf:resource="http://purl.org/dc/dcmitype/StillImage" />
    <dc:title></dc:title>
  </cc:Work>
</rdf:RDF>
</metadata>
  <g
     class="moon"
     transform="matrix(0.04,0,0,-0.04,0,103)"
     id="g3426"
     style="stroke:none">
    <path
       class="moon"
       d="M 965.93202,2515.4831 C 689.27683,2479.2713 484.58397,2396.5015 268.69697,2233.1791 238.31287,2210.2696 90.390296,2054.3372 71.999922,2026.2546 c -7.995815,-11.8242 11.194141,-39.1678 26.386189,-39.1678 6.396649,0 38.379909,19.9534 71.162749,43.6019 51.17322,38.4289 175.10835,101.9842 244.67194,124.8937 112.74099,38.4288 254.26691,56.9042 395.79283,50.9921 303.84097,-12.5633 526.12457,-116.0255 732.41667,-341.4253 103.146,-113.0694 171.91,-243.8752 207.0916,-396.8514 16.7912,-72.4236 16.7912,-285.2601 0,-359.1617 C 1718.3382,971.67917 1655.9708,843.82945 1568.8165,738.88921 1487.2591,639.8611 1332.9399,517.18449 1217.8002,460.28028 1048.2889,375.29346 808.41447,340.55972 610.11826,372.3374 497.37727,390.07378 439.8074,406.33213 346.25637,444.76095 279.89111,472.84354 166.35054,544.52807 96.786948,602.91032 41.615825,649.46831 -3.9603191,642.07815 17.628381,588.86902 28.02294,563.00346 113.57816,460.28028 163.95179,412.98327 371.84298,217.14409 582.93249,104.8137 853.99061,46.431457 945.94248,25.739016 957.93621,25 1153.8337,25 c 195.8974,0 207.8912,0.739016 299.843,21.431457 197.4967,42.862913 307.0393,90.159923 512.5318,218.748663 52.7723,33.25571 203.8932,167.01756 254.2669,224.66079 128.7326,147.06413 203.8932,284.52106 251.8681,461.14582 33.5825,125.63267 43.977,219.48767 38.3799,370.98587 -10.3945,311.8647 -119.1376,560.174 -347.0183,792.9639 -227.8807,232.79 -484.5464,356.9446 -829.9656,401.2856 -97.5489,11.8242 -271.0581,11.8242 -367.80748,-0.739 z m 487.74468,-80.5527 c 259.864,-55.4262 463.7573,-166.2786 650.0598,-353.9886 210.2899,-211.3585 312.6363,-427.8901 338.2229,-708.7161 17.5908,-194.3611 -9.5949,-369.5079 -83.1564,-541.69853 C 2214.0787,490.57992 1847.8704,194.23461 1469.6684,112.94287 1226.5956,61.211772 955.53746,70.818976 734.05339,141.02547 616.51491,177.23724 435.00992,271.09224 353.4526,336.86465 c -68.764,55.42618 -75.16066,60.59929 -63.16693,61.3383 7.19623,0 19.18995,-4.43409 27.98535,-10.34622 23.98744,-14.78031 127.93304,-47.29701 207.89118,-65.03338 93.55104,-20.69244 335.02465,-25.86555 427.7761,-9.60721 126.3339,22.90949 265.4611,70.94551 355.8138,123.41563 175.9079,103.46221 329.4275,254.96044 411.7844,408.67571 70.3632,132.28382 99.1481,233.52902 107.9435,385.76622 18.3904,302.9965 -91.9518,558.6959 -337.4234,779.6616 -116.7389,104.9403 -291.0476,192.8831 -458.1602,230.5729 -189.50076,42.8629 -448.56517,33.2557 -622.87393,-23.6485 -35.18158,-11.8242 -66.36526,-19.9534 -67.96443,-17.7364 -9.59497,8.1292 130.33179,96.8111 216.68659,137.457 204.69286,94.594 349.41711,122.6766 618.07647,119.7205 163.1146,-1.478 188.7012,-3.6951 275.8556,-22.1704 z"
       id="path3428"
       inkscape:connector-curvature="0" />
  </g>
</svg>
