<?xml version="1.0" encoding="UTF-8" standalone="no"?>
<!-- Generator: Adobe Illustrator 17.0.0, SVG Export Plug-In . SVG Version: 6.00 Build 0)  -->

<svg
   xmlns:dc="http://purl.org/dc/elements/1.1/"
   xmlns:cc="http://creativecommons.org/ns#"
   xmlns:rdf="http://www.w3.org/1999/02/22-rdf-syntax-ns#"
   xmlns:svg="http://www.w3.org/2000/svg"
   xmlns="http://www.w3.org/2000/svg"
   xmlns:sodipodi="http://sodipodi.sourceforge.net/DTD/sodipodi-0.dtd"
   xmlns:inkscape="http://www.inkscape.org/namespaces/inkscape"
   version="1.1"
   id="Layer_1"
   x="0px"
   y="0px"
   width="133"
   height="133"
   viewBox="0 0 133 133"
   enable-background="new 0 0 512 512"
   xml:space="preserve"
   inkscape:version="0.91 r13725"
   sodipodi:docname="sun3.svg"><metadata
     id="metadata3420"><rdf:RDF><cc:Work
         rdf:about=""><dc:format>image/svg+xml</dc:format><dc:type
           rdf:resource="http://purl.org/dc/dcmitype/StillImage" /><dc:title></dc:title></cc:Work></rdf:RDF></metadata><defs
     id="defs3418" /><sodipodi:namedview
     pagecolor="#ffffff"
     bordercolor="#666666"
     borderopacity="1"
     objecttolerance="10"
     gridtolerance="10"
     guidetolerance="10"
     inkscape:pageopacity="0"
     inkscape:pageshadow="2"
     inkscape:window-width="1138"
     inkscape:window-height="943"
     id="namedview3416"
     showgrid="false"
     inkscape:zoom="1.5004828"
     inkscape:cx="256"
     inkscape:cy="224.20467"
     inkscape:window-x="162"
     inkscape:window-y="0"
     inkscape:window-maximized="0"
     inkscape:current-layer="Layer_1" /><g
     class="sun"
     id="g3380"
     transform="matrix(0.24848045,0,0,0.2477502,3.3602521,3.34676)"><circle
       cx="256"
       cy="255.99899"
       r="162.92101"
       id="circle3382" /><path
       d="m 256.238,441.527 c -11.027,0 -19.966,8.941 -19.966,19.966 l 0,26.812 c 0,11.025 8.938,19.966 19.966,19.966 11.025,0 19.966,-8.941 19.966,-19.966 l 0,-26.812 c -0.001,-11.025 -8.942,-19.966 -19.966,-19.966 z"
       id="path3384"
       inkscape:connector-curvature="0" /><path
       d="m 347.68,439.871 c -4.048,-10.256 -15.647,-15.287 -25.903,-11.238 -10.256,4.051 -15.287,15.647 -11.236,25.903 l 9.845,24.937 c 4.051,10.256 15.647,15.287 25.903,11.238 10.256,-4.051 15.289,-15.647 11.238,-25.903 l -9.847,-24.937 z"
       id="path3386"
       inkscape:connector-curvature="0" /><path
       d="m 414.777,387.735 c -7.439,-8.143 -20.068,-8.714 -28.208,-1.275 -8.14,7.436 -8.711,20.066 -1.275,28.206 l 18.082,19.795 c 7.439,8.14 20.066,8.711 28.208,1.272 8.14,-7.436 8.711,-20.066 1.275,-28.206 l -18.082,-19.792 z"
       id="path3388"
       inkscape:connector-curvature="0" /><path
       d="m 479.826,326.22 -24.385,-11.144 c -10.029,-4.581 -21.876,-0.168 -26.458,9.861 -4.584,10.029 -0.171,21.873 9.861,26.458 l 24.382,11.144 c 10.029,4.584 21.876,0.168 26.458,-9.861 4.585,-10.029 0.171,-21.874 -9.858,-26.458 z"
       id="path3390"
       inkscape:connector-curvature="0" /><path
       d="m 486.694,236.226 -26.785,1.164 c -11.017,0.479 -19.557,9.799 -19.078,20.815 0.479,11.017 9.796,19.557 20.813,19.081 l 26.785,-1.166 c 11.017,-0.479 19.557,-9.796 19.081,-20.813 -0.479,-11.017 -9.799,-19.56 -20.816,-19.081 z"
       id="path3392"
       inkscape:connector-curvature="0" /><path
       d="m 427.225,187.749 c 5.039,9.807 17.073,13.674 26.882,8.635 l 23.846,-12.251 c 9.807,-5.039 13.674,-17.075 8.635,-26.882 -5.039,-9.81 -17.075,-13.674 -26.882,-8.635 l -23.846,12.251 c -9.809,5.038 -13.673,17.075 -8.635,26.882 z"
       id="path3394"
       inkscape:connector-curvature="0" /><path
       d="m 414.014,125.124 18.715,-19.197 c 7.699,-7.894 7.539,-20.534 -0.357,-28.233 -7.894,-7.699 -20.534,-7.539 -28.233,0.357 l -18.715,19.194 c -7.699,7.896 -7.539,20.537 0.354,28.233 7.897,7.7 20.537,7.54 28.236,-0.354 z"
       id="path3396"
       inkscape:connector-curvature="0" /><path
       d="m 319.961,82.122 c 9.774,5.106 21.836,1.321 26.939,-8.454 l 12.413,-23.762 c 5.106,-9.774 1.321,-21.836 -8.451,-26.942 -9.774,-5.104 -21.836,-1.321 -26.942,8.454 L 311.507,55.18 c -5.104,9.774 -1.32,21.835 8.454,26.942 z"
       id="path3398"
       inkscape:connector-curvature="0" /><path
       d="m 254.993,70.448 c 11.022,0.336 20.228,-8.327 20.561,-19.349 l 0.815,-26.798 C 276.705,13.279 268.04,4.073 257.018,3.74 245.999,3.404 236.793,12.067 236.457,23.089 l -0.815,26.798 c -0.336,11.022 8.329,20.228 19.351,20.561 z"
       id="path3400"
       inkscape:connector-curvature="0" /><path
       d="m 161.614,70.908 c 3.58,10.429 14.938,15.98 25.367,12.399 10.429,-3.58 15.98,-14.938 12.399,-25.367 l -8.708,-25.356 c -3.58,-10.429 -14.938,-15.982 -25.367,-12.399 -10.429,3.58 -15.98,14.938 -12.399,25.367 l 8.708,25.356 z"
       id="path3402"
       inkscape:connector-curvature="0" /><path
       d="m 99.246,125.314 c 8.029,7.555 20.666,7.171 28.222,-0.858 7.555,-8.032 7.171,-20.666 -0.858,-28.222 L 107.086,77.86 C 99.054,70.305 86.42,70.689 78.861,78.721 71.306,86.75 71.69,99.385 79.722,106.943 l 19.524,18.371 z"
       id="path3404"
       inkscape:connector-curvature="0" /><path
       d="m 29.984,186.596 25.153,9.274 c 10.348,3.813 21.825,-1.483 25.64,-11.828 3.813,-10.348 -1.483,-21.827 -11.828,-25.64 l -25.156,-9.271 c -10.348,-3.813 -21.825,1.483 -25.64,11.828 -3.813,10.345 1.483,21.824 11.831,25.637 z"
       id="path3406"
       inkscape:connector-curvature="0" /><path
       d="m 52.588,275.727 c 11,-0.779 19.286,-10.326 18.507,-21.324 -0.777,-11 -10.324,-19.286 -21.324,-18.51 l -26.742,1.892 c -11,0.777 -19.286,10.324 -18.507,21.324 0.777,11 10.324,19.286 21.321,18.507 l 26.745,-1.889 z"
       id="path3408"
       inkscape:connector-curvature="0" /><path
       d="M 85.391,331.8 C 81.711,321.406 70.302,315.964 59.908,319.644 l -25.272,8.949 c -10.394,3.68 -15.839,15.089 -12.158,25.483 3.68,10.394 15.092,15.836 25.486,12.156 l 25.272,-8.946 c 10.393,-3.68 15.835,-15.092 12.155,-25.486 z"
       id="path3410"
       inkscape:connector-curvature="0" /><path
       d="M 96.513,387.686 78.269,407.33 c -7.504,8.08 -7.039,20.712 1.042,28.216 8.078,7.507 20.712,7.039 28.216,-1.039 l 18.245,-19.644 c 7.504,-8.08 7.039,-20.712 -1.042,-28.216 -8.078,-7.504 -20.713,-7.039 -28.217,1.039 z"
       id="path3412"
       inkscape:connector-curvature="0" /><path
       d="m 188.253,429.046 c -10.118,-4.381 -21.873,0.273 -26.252,10.391 l -10.651,24.604 c -4.381,10.121 0.273,21.873 10.391,26.255 10.121,4.378 21.873,-0.273 26.255,-10.391 l 10.648,-24.604 c 4.381,-10.121 -0.271,-21.874 -10.391,-26.255 z"
       id="path3414"
       inkscape:connector-curvature="0" /></g></svg>